:SAMPLES-PER-SECOND 30
:FULLY-SPECIFIED
:DEGREES
39
root  2.18327 38.8609 -3.56449 -169.014 -75.1889 158.823
RightUpLeg  -19.3726 -13.3504 -13.1604
RightLeg  9.54685 -3.35759 -0.228045
RightFoot  -5.14869 -0.273349 4.39955
RightToes  0.00048216 0.542163 -0.142577
Spine  15.7793 -1.73589 -8.5034
Spine1  10.35 -4.55818 4.32134
HEad  5.76854 14.7274 -9.46199
LeftShoulder1  10.7221 -14.9414 -50.7451
LeftArm  15.3326 -15.299 -33.0704
LeftForeArm  32.858 -15.6603 -7.36491
LeftHand  -0.25398 0.0180481 5.50724
RightShoulder  5.29811 9.06816 36.1575
RightArm  -5.0586 -26.2198 43.6501
RightForeArm  17.1848 14.5259 5.74372
RightHand  -0.391913 -1.6206 -11.8762
LeftUpLeg  17.1675 10.5079 2.01517
LeftLeg  15.797 18.0615 0.00263479
LeftFoot  -21.2984 -0.576014 -8.0603
LeftToes  1.06244e-005 4.65854e-005 -8.18505e-006
40
root  1.07706 38.6428 -4.17429 -169.222 -75.2797 159.507
RightUpLeg  -20.057 -13.5779 -12.7885
RightLeg  12.1174 -3.17446 -0.695361
RightFoot  -4.97248 -0.251187 3.90629
RightToes  0.00048216 0.542163 -0.142577
Spine  15.4937 -2.16732 -8.52376
Spine1  10.7079 -5.3276 5.35532
HEad  5.83101 15.8736 -10.3898
LeftShoulder1  10.648 -14.8354 -50.6866
LeftArm  20.1918 -15.9743 -34.8781
LeftForeArm  28.6404 -19.928 -4.88251
LeftHand  -0.25398 0.0180481 5.50724
RightShoulder  5.30699 9.13997 35.9922
RightArm  -2.43194 -27.4959 44.0483
RightForeArm  18.9899 15.3649 5.68326
RightHand  -0.338372 -1.85815 -10.8191
LeftUpLeg  19.019 10.2091 3.03899
LeftLeg  15.0892 17.3098 -0.229402
LeftFoot  -21.6633 -0.728259 -9.48537
LeftToes  1.06244e-005 4.65854e-005 -8.18505e-006
41
root  -0.0891845 38.4648 -4.86471 -170.87 -75.6646 162.247
RightUpLeg  -21.1226 -14.2351 -11.4971
RightLeg  15.5116 -3.32242 -1.17772
RightFoot  -3.8193 -0.250377 3.41657
RightToes  0.00048216 0.542163 -0.142577
Spine  15.0043 -2.71828 -7.81117
Spine1  10.6869 -6.07518 6.43703
HEad  5.87894 16.9895 -10.8591
LeftShoulder1  10.4802 -14.6672 -50.3526
LeftArm  19.4174 -15.8602 -36.1815
LeftForeArm  26.5697 -22.8718 -3.71674
LeftHand  -0.25398 0.0180481 5.50724
RightShoulder  5.24119 9.06066 35.7391
RightArm  -0.557796 -28.6521 43.8226
RightForeArm  18.0866 16.4811 5.48473
RightHand  -0.378914 -1.56239 -11.2331
LeftUpLeg  20.3174 10.3008 4.76262
LeftLeg  14.5031 16.4696 0.0639193
LeftFoot  -21.5627 -0.794456 -10.2985
LeftToes  1.06244e-005 4.65854e-005 -8.18505e-006
42
root  -1.2853 38.3211 -5.63002 -175.156 -75.9454 167.778
RightUpLeg  -22.414 -14.4456 -9.45657
RightLeg  19.2668 -3.48893 -1.57187
RightFoot  -1.57729 -0.264321 2.9703
RightToes  0.00048216 0.542163 -0.142577
Spine  14.9551 -3.24032 -6.22449
Spine1  10.2166 -6.59814 7.29039
HEad  5.57715 18.114 -11.0979
LeftShoulder1  10.3105 -14.5531 -49.8544
LeftArm  15.3042 -15.1958 -36.8423
LeftForeArm  27.2902 -25.1924 -3.91913
LeftHand  -0.25398 0.0180481 5.50724
RightShoulder  5.17747 8.97626 35.516
RightArm  -0.272326 -29.0997 43.0647
RightForeArm  15.6475 17.0505 5.39171
RightHand  -0.439864 -1.34762 -12.4343
LeftUpLeg  21.3289 11.3531 7.74819
LeftLeg  14.6459 14.4663 0.69838
LeftFoot  -20.9895 -0.877676 -11.8448
LeftToes  1.06244e-005 4.65854e-005 -8.18505e-006
43
root  -2.51166 38.1873 -6.469 178.289 -75.7042 175.082
RightUpLeg  -23.2166 -14.0361 -7.10533
RightLeg  23.0554 -3.34704 -1.77534
RightFoot  0.524914 -0.258258 2.51772
RightToes  0.00048216 0.542163 -0.142577
Spine  15.5707 -3.66042 -4.08261
Spine1  9.94752 -6.85069 7.7977
HEad  4.86292 19.3694 -11.3561
LeftShoulder1  10.2441 -14.5714 -49.4841
LeftArm  10.9535 -14.0635 -36.5158
LeftForeArm  28.8578 -27.6192 -4.39511
LeftHand  -0.25398 0.0180481 5.50724
RightShoulder  5.23499 9.08061 35.6256
RightArm  -1.65183 -28.1319 41.6487
RightForeArm  14.2024 16.4597 5.53166
RightHand  -0.496404 -1.13685 -13.397
LeftUpLeg  22.6235 13.3657 11.9279
LeftLeg  15.7603 10.2259 1.44794
LeftFoot  -19.9119 -1.10976 -16.4016
LeftToes  1.06244e-005 4.65854e-005 -8.18505e-006
44
root  -3.75802 38.0924 -7.37333 172.143 -75.0111 -178.471
RightUpLeg  -23.0786 -13.8917 -4.83727
RightLeg  26.3202 -2.7827 -1.72083
RightFoot  0.938752 -0.208888 1.99524
RightToes  0.00048216 0.542163 -0.142577
Spine  16.3143 -4.03958 -2.04442
Spine1  10.3259 -6.98166 8.06702
HEad  4.27684 20.8273 -11.6621
LeftShoulder1  10.2397 -14.6448 -49.2623
LeftArm  7.3122 -12.4512 -35.2551
LeftForeArm  29.9019 -29.9121 -4.85422
LeftHand  -0.25398 0.0180481 5.50724
RightShoulder  5.39615 9.32686 36.0736
RightArm  -4.68576 -25.6108 39.9065
RightForeArm  15.1365 14.5469 5.75367
RightHand  -0.547138 -0.774897 -13.6702
LeftUpLeg  23.0488 14.3079 15.4055
LeftLeg  19.0591 7.94047 3.21568
LeftFoot  -17.0852 -0.968938 -21.3915
LeftToes  1.06244e-005 4.65854e-005 -8.18505e-006
45
root  -4.97998 38.0754 -8.29976 168.124 -74.3055 -174.027
RightUpLeg  -22.3968 -14.4938 -2.86534
RightLeg  28.8316 -2.05396 -1.45767
RightFoot  -0.721266 -0.132217 1.35819
RightToes  0.00048216 0.542163 -0.142577
Spine  16.75 -4.38439 -0.313573
Spine1  10.8373 -7.00991 8.07829
HEad  4.31459 22.1962 -11.8717
LeftShoulder1  10.1666 -14.6313 -48.9461
LeftArm  4.56152 -10.446 -33.7472
LeftForeArm  29.8506 -31.2292 -5.16403
LeftHand  -0.25398 0.0180481 5.50724
RightShoulder  5.51876 9.50414 36.4346
RightArm  -8.57695 -22.2611 38.5415
RightForeArm  16.7046 12.2707 5.66461
RightHand  -0.584102 -0.458632 -13.7008
LeftUpLeg  20.1356 11.6588 16.0511
LeftLeg  26.8169 12.4185 7.21091
LeftFoot  -10.9097 0.087131 -20.3928
LeftToes  1.06244e-005 4.65854e-005 -8.18505e-006
46
root  -6.13161 38.0683 -9.16928 165.237 -73.8092 -170.439
RightUpLeg  -21.8645 -15.1621 -1.13326
RightLeg  31.2104 -1.57813 -1.28053
RightFoot  -3.62819 -0.0729019 0.712408
RightToes  0.00048216 0.542163 -0.142577
Spine  17.0886 -4.66923 1.63918
Spine1  11.0421 -6.73455 7.66596
HEad  4.63285 22.8883 -11.9021
LeftShoulder1  10.0151 -14.5401 -48.458
LeftArm  2.43336 -8.46078 -32.5833
LeftForeArm  29.286 -31.297 -5.21231
LeftHand  -0.25398 0.0180481 5.50724
RightShoulder  5.55194 9.58458 36.4272
RightArm  -11.5756 -18.8359 37.6754
RightForeArm  15.755 11.1176 5.32421
RightHand  -0.623777 -0.293683 -14.1777
LeftUpLeg  14.0946 9.73891 15.994
LeftLeg  38.117 15.2494 12.7736
LeftFoot  -2.59355 0.91311 -11.9847
LeftToes  1.06244e-005 4.65854e-005 -8.18505e-006
47
root  -7.19851 38.0582 -9.91676 162.144 -73.3973 -166.782
RightUpLeg  -21.121 -15.037 0.403609
RightLeg  33.1955 -1.70729 -1.4626
RightFoot  -6.48265 -0.0567759 0.31807
RightToes  0.00048216 0.542163 -0.142577
Spine  17.6199 -4.84002 4.17252
Spine1  11.4614 -6.06265 6.85121
HEad  4.56292 22.639 -11.8259
LeftShoulder1  9.92211 -14.5164 -48.0673
LeftArm  0.540551 -6.94401 -31.6805
LeftForeArm  28.9452 -30.6343 -5.07488
LeftHand  -0.25398 0.0180481 5.50724
RightShoulder  5.5952 9.73414 36.2784
RightArm  -12.7211 -15.2704 36.6296
RightForeArm  11.833 11.3671 5.30044
RightHand  -0.748882 0.266932 -15.365
LeftUpLeg  7.02524 8.86552 15.8109
LeftLeg  48.5915 12.4124 14.9194
LeftFoot  2.82057 0.518751 -4.01802
LeftToes  1.06244e-005 4.65854e-005 -8.18505e-006
48
root  -8.29369 38.1649 -10.6275 160.401 -73.167 -164.957
RightUpLeg  -19.2333 -14.5354 1.14298
RightLeg  33.9583 -2.10076 -1.78536
RightFoot  -8.83928 -0.0676471 0.386715
RightToes  0.00048216 0.542163 -0.142577
Spine  18.0155 -4.72378 6.06999
Spine1  12.3903 -5.19338 5.74438
HEad  4.18804 21.8826 -11.7643
LeftShoulder1  9.96523 -14.5972 -48.06
LeftArm  -1.0531 -5.82072 -30.6467
LeftForeArm  28.6687 -29.7058 -4.87442
LeftHand  -0.25398 0.0180481 5.50724
RightShoulder  5.69453 9.96882 36.279
RightArm  -12.2278 -11.1508 34.9541
RightForeArm  7.43172 12.1042 5.61149
RightHand  -1.01589 1.62245 -16.9125
LeftUpLeg  0.488627 8.44382 14.7251
LeftLeg  56.1298 7.56895 12.4314
LeftFoot  3.04124 0.2709 -2.29991
LeftToes  1.06244e-005 4.65854e-005 -8.18505e-006
49
root  -9.46667 38.4011 -11.3447 160.59 -73.3622 -165.207
RightUpLeg  -16.4354 -14.6635 1.00684
RightLeg  33.4674 -2.17682 -1.81372
RightFoot  -10.7632 -0.0765963 0.702709
RightToes  0.00048216 0.542163 -0.142577
Spine  17.9765 -4.41963 6.98279
Spine1  13.3535 -4.38071 4.66192
HEad  4.1403 21.2355 -11.8432
LeftShoulder1  10.0505 -14.6519 -48.3286
LeftArm  -2.02379 -4.53232 -29.474
LeftForeArm  27.9485 -28.4988 -4.63916
LeftHand  -0.25398 0.0180481 5.50724
RightShoulder  5.7425 10.0617 36.3417
RightArm  -11.1803 -6.65463 32.9975
RightForeArm  5.01837 12.7089 5.88296
RightHand  -1.31427 3.07169 -18.1941
LeftUpLeg  -5.56009 8.13742 12.4818
LeftLeg  60.5582 4.70881 9.60466
LeftFoot  1.13692 0.433761 -4.03792
LeftToes  1.06244e-005 4.65854e-005 -8.18505e-006
50
root  -10.7081 38.6922 -12.0534 161.922 -73.7748 -166.389
RightUpLeg  -13.3981 -15.4957 0.445769
RightLeg  32.2262 -1.77983 -1.47179
RightFoot  -12.3596 -0.0775296 0.752282
RightToes  0.00048216 0.542163 -0.142577
Spine  17.5736 -3.99689 7.57657
Spine1  13.8202 -3.54303 3.57566
HEad  4.53959 20.826 -12.1838
LeftShoulder1  10.0547 -14.6037 -48.4786
LeftArm  -2.34362 -2.72131 -28.5244
LeftForeArm  26.786 -26.9454 -4.35665
LeftHand  -0.25398 0.0180481 5.50724
RightShoulder  5.64416 9.87368 36.2045
RightArm  -10.3067 -2.5171 31.2937
RightForeArm  4.0349 13.5473 5.93673
RightHand  -1.48245 3.7772 -18.942
LeftUpLeg  -11.2195 8.35107 9.56215
LeftLeg  61.6861 4.40222 9.39349
LeftFoot  -0.425523 0.457215 -4.72911
LeftToes  1.06244e-005 4.65854e-005 -8.18505e-006
